<?xml version="1.0" encoding="utf-8"?>
<!-- Generator: Adobe Illustrator 16.0.0, SVG Export Plug-In . SVG Version: 6.00 Build 0)  -->
<!DOCTYPE svg PUBLIC "-//W3C//DTD SVG 1.1//EN" "http://www.w3.org/Graphics/SVG/1.1/DTD/svg11.dtd">
<svg version="1.1" id="Layer_1" xmlns="http://www.w3.org/2000/svg" xmlns:xlink="http://www.w3.org/1999/xlink" x="0px" y="0px"
	 width="338px" height="249px" viewBox="0 0 338 249" enable-background="new 0 0 338 249" xml:space="preserve">
<g>
	<path fill-rule="evenodd" clip-rule="evenodd" d="M167.109,169.768c-27.34-20.812-53.765-40.927-80.628-61.376
		c26.801-20.401,53.242-40.529,80.631-61.378c0,7.797,0.19,14.531-0.157,21.238c-0.071,1.375-1.971,2.883-3.334,3.931
		c-15.574,11.963-31.208,23.849-47.375,36.174c7.105,5.457,13.87,10.682,20.667,15.865c9.138,6.968,18.322,13.877,27.427,20.888
		c1.108,0.853,2.604,2.146,2.646,3.283C167.235,155.127,167.109,161.876,167.109,169.768z"/>
	<path fill-rule="evenodd" clip-rule="evenodd" d="M179.391,147.555c0-6.708,0-12.637,0-19.104c9.838-0.525,18.46-4.2,23.631-12.601
		c3.015-4.896,5.068-10.971,5.568-16.688c0.703-8.026-2.738-15.206-8.573-21.073c-5.681-5.713-12.761-8.157-20.638-8.871
		c0-6.385,0-12.321,0-18.883c16.041,0.253,29.031,6.416,38.379,18.906c12.397,16.563,13.959,34.698,4.104,52.991
		C213.021,138.644,198.588,146.639,179.391,147.555z"/>
</g>
<text transform="matrix(1 0 0 1 42.2793 213.2109)"><tspan x="0" y="0" font-family="'MyriadPro-Bold'" font-size="39.9049">CODE</tspan><tspan x="101.438" y="0" font-family="'MyriadPro-Regular'" font-size="39.9049">KARIGOR</tspan></text>
</svg>
